<svg width="99" height="89" viewBox="0 0 99 89" fill="none" xmlns="http://www.w3.org/2000/svg">
<rect width="99" height="89" rx="13" fill="white"/>
<path d="M6.584 36.104C6.584 32.776 7.304 29.816 8.744 27.224C10.184 24.6 12.184 22.568 14.744 21.128C17.336 19.656 20.264 18.92 23.528 18.92C27.528 18.92 30.952 19.976 33.8 22.088C36.648 24.2 38.552 27.08 39.512 30.728H30.488C29.816 29.32 28.856 28.248 27.608 27.512C26.392 26.776 25 26.408 23.432 26.408C20.904 26.408 18.856 27.288 17.288 29.048C15.72 30.808 14.936 33.16 14.936 36.104C14.936 39.048 15.72 41.4 17.288 43.16C18.856 44.92 20.904 45.8 23.432 45.8C25 45.8 26.392 45.432 27.608 44.696C28.856 43.96 29.816 42.888 30.488 41.48H39.512C38.552 45.128 36.648 48.008 33.8 50.12C30.952 52.2 27.528 53.24 23.528 53.24C20.264 53.24 17.336 52.52 14.744 51.08C12.184 49.608 10.184 47.576 8.744 44.984C7.304 42.392 6.584 39.432 6.584 36.104Z" fill="black"/>
<path d="M73.6 19.304C77.152 19.304 80.256 20.008 82.912 21.416C85.568 22.824 87.616 24.808 89.056 27.368C90.528 29.896 91.264 32.824 91.264 36.152C91.264 39.448 90.528 42.376 89.056 44.936C87.616 47.496 85.552 49.48 82.864 50.888C80.208 52.296 77.12 53 73.6 53H60.976V19.304H73.6ZM73.072 45.896C76.176 45.896 78.592 45.048 80.32 43.352C82.048 41.656 82.912 39.256 82.912 36.152C82.912 33.048 82.048 30.632 80.32 28.904C78.592 27.176 76.176 26.312 73.072 26.312H69.184V45.896H73.072Z" fill="black"/>
<path d="M51.184 63.664H61.936V70H42.976V36.304H51.184V63.664Z" fill="black"/>
</svg>
