<svg width="400" height="300" viewBox="0 0 400 300" fill="none" xmlns="http://www.w3.org/2000/svg">
<g id="DayleeThumbail">
<rect id="Rectangle 43" width="400" height="300" rx="5" fill="#18181A"/>
<path id="D" d="M154.952 202V101.2H200.744C211.688 101.2 221.336 103.312 229.688 107.536C238.04 111.664 244.568 117.472 249.272 124.96C253.976 132.448 256.328 141.328 256.328 151.6C256.328 161.776 253.976 170.656 249.272 178.24C244.568 185.728 238.04 191.584 229.688 195.808C221.336 199.936 211.688 202 200.744 202H154.952ZM178.28 182.848H199.592C206.312 182.848 212.12 181.6 217.016 179.104C222.008 176.512 225.848 172.864 228.536 168.16C231.32 163.456 232.712 157.936 232.712 151.6C232.712 145.168 231.32 139.648 228.536 135.04C225.848 130.336 222.008 126.736 217.016 124.24C212.12 121.648 206.312 120.352 199.592 120.352H178.28V182.848Z" fill="url(#paint0_linear_1414_353)"/>
</g>
<defs>
<linearGradient id="paint0_linear_1414_353" x1="218.556" y1="74.878" x2="155.072" y2="192.202" gradientUnits="userSpaceOnUse">
<stop stop-color="#8E80F9"/>
<stop offset="1" stop-color="#BE7BF6"/>
</linearGradient>
</defs>
</svg>
